<svg width="800" height="800" viewBox="0 0 48 48" xmlns="http://www.w3.org/2000/svg"><path d="M25.6384 48H2.6492C1.1857 48 0 46.8136 0 45.3506V2.6492C0 1.1858 1.1859 0 2.6492 0H45.351C46.814 0 48 1.1858 48 2.6492v42.7014C48 46.8138 46.8138 48 45.351 48H33.1193V29.4118h6.2392l.9343-7.2442h-7.1735v-4.625c0-2.0973.5824-3.5266 3.59-3.5266l3.836-.0017V7.5351c-.6634-.0883-2.9405-.2855-5.5897-.2855-5.5308 0-9.3172 3.376-9.3172 9.5756v5.3424H19.383v7.2442h6.2553V48Z" fill="#4460A0" fill-rule="evenodd"/></svg>